{
    "accessors" : [
        {
            "bufferView" : 0,
            "componentType" : 5123,
            "count" : 816,
            "max" : [
                415
            ],
            "min" : [
                0
            ],
            "type" : "SCALAR"
        },
        {
            "bufferView" : 1,
            "componentType" : 5126,
            "count" : 416,
            "max" : [
                0.9925509095191956,
                0.9993078708648682,
                0.997617244720459
            ],
            "min" : [
                -0.9925508499145508,
                -0.9993078708648682,
                -0.9976167678833008
            ],
            "type" : "VEC3"
        },
        {
            "bufferView" : 2,
            "componentType" : 5126,
            "count" : 416,
            "max" : [
                0.9972837567329407,
                0.9883555173873901,
                0.9998792409896851
            ],
            "min" : [
                -0.9972838163375854,
                -0.9883555173873901,
                -0.9998791217803955
            ],
            "type" : "VEC3"
        },
        {
            "bufferView" : 3,
            "componentType" : 5123,
            "count" : 816,
            "max" : [
                415
            ],
            "min" : [
                0
            ],
            "type" : "SCALAR"
        },
        {
            "bufferView" : 4,
            "componentType" : 5126,
            "count" : 416,
            "max" : [
                0.9958337545394897,
                0.9975215792655945,
                0.9907765984535217
            ],
            "min" : [
                -0.9958336353302002,
                -0.9975215792655945,
                -0.9907765984535217
            ],
            "type" : "VEC3"
        },
        {
            "bufferView" : 5,
            "componentType" : 5126,
            "count" : 416,
            "max" : [
                0.9997947812080383,
                0.9875577688217163,
                0.9992812871932983
            ],
            "min" : [
                -0.9997948408126831,
                -0.9875572919845581,
                -0.9992812871932983
            ],
            "type" : "VEC3"
        },
        {
            "bufferView" : 6,
            "componentType" : 5123,
            "count" : 816,
            "max" : [
                415
            ],
            "min" : [
                0
            ],
            "type" : "SCALAR"
        },
        {
            "bufferView" : 7,
            "componentType" : 5126,
            "count" : 416,
            "max" : [
                0.9932384490966797,
                1.0000026226043701,
                0.9983081817626953
            ],
            "min" : [
                -0.9932384490966797,
                -1.0000019073486328,
                -0.9983078837394714
            ],
            "type" : "VEC3"
        },
        {
            "bufferView" : 8,
            "componentType" : 5126,
            "count" : 416,
            "max" : [
                0.9988056421279907,
                0.9999999403953552,
                0.9951847195625305
            ],
            "min" : [
                -0.9988057017326355,
                -1.0,
                -0.9951847791671753
            ],
            "type" : "VEC3"
        }
    ],
    "asset" : {
        "generator" : "Khronos Blender glTF 2.0 exporter",
        "version" : "2.0"
    },
    "bufferViews" : [
        {
            "buffer" : 0,
            "byteLength" : 1632,
            "byteOffset" : 0,
            "target" : 34963
        },
        {
            "buffer" : 0,
            "byteLength" : 4992,
            "byteOffset" : 1632,
            "target" : 34962
        },
        {
            "buffer" : 0,
            "byteLength" : 4992,
            "byteOffset" : 6624,
            "target" : 34962
        },
        {
            "buffer" : 0,
            "byteLength" : 1632,
            "byteOffset" : 11616,
            "target" : 34963
        },
        {
            "buffer" : 0,
            "byteLength" : 4992,
            "byteOffset" : 13248,
            "target" : 34962
        },
        {
            "buffer" : 0,
            "byteLength" : 4992,
            "byteOffset" : 18240,
            "target" : 34962
        },
        {
            "buffer" : 0,
            "byteLength" : 1632,
            "byteOffset" : 23232,
            "target" : 34963
        },
        {
            "buffer" : 0,
            "byteLength" : 4992,
            "byteOffset" : 24864,
            "target" : 34962
        },
        {
            "buffer" : 0,
            "byteLength" : 4992,
            "byteOffset" : 29856,
            "target" : 34962
        }
    ],
    "buffers" : [
        {
            "byteLength" : 34848,
            "uri" : "bs.bin"
        }
    ],
    "meshes" : [
        {
            "name" : "Cylinder",
            "primitives" : [
                {
                    "attributes" : {
                        "NORMAL" : 2,
                        "POSITION" : 1
                    },
                    "indices" : 0
                }
            ]
        },
        {
            "name" : "Cylinder.008",
            "primitives" : [
                {
                    "attributes" : {
                        "NORMAL" : 5,
                        "POSITION" : 4
                    },
                    "indices" : 3
                }
            ]
        },
        {
            "name" : "Cylinder.009",
            "primitives" : [
                {
                    "attributes" : {
                        "NORMAL" : 8,
                        "POSITION" : 7
                    },
                    "indices" : 6
                }
            ]
        }
    ],
    "nodes" : [
        {
            "name" : "Camera",
            "rotation" : [
                0.497636616230011,
                0.05989415943622589,
                -0.04363754391670227,
                0.8642142415046692
            ],
            "scale" : [
                0.9999999403953552,
                1.0,
                1.0
            ],
            "translation" : [
                0.9814281463623047,
                4.598527908325195,
                9.697813034057617
            ]
        },
        {
            "name" : "Fill Light",
            "rotation" : [
                0.16907575726509094,
                0.7558802962303162,
                -0.27217137813568115,
                0.570947527885437
            ],
            "scale" : [
                1.0,
                1.0,
                0.9999999403953552
            ],
            "translation" : [
                4.423823356628418,
                1.7827463150024414,
                3.95417857170105
            ]
        },
        {
            "name" : "Key Light",
            "rotation" : [
                0.16907575726509094,
                0.7558802962303162,
                -0.27217137813568115,
                0.570947527885437
            ],
            "scale" : [
                1.0,
                1.0,
                0.9999999403953552
            ],
            "translation" : [
                -3.8384344577789307,
                2.3985090255737305,
                4.190925598144531
            ]
        },
        {
            "mesh" : 0,
            "name" : "Large Star",
            "rotation" : [
                -0.0,
                1.0,
                0.0,
                0.0
            ],
            "scale" : [
                -5.038618564605713,
                -0.10476303100585938,
                -5.038618564605713
            ]
        },
        {
            "mesh" : 1,
            "name" : "Medium Star",
            "rotation" : [
                -0.0,
                1.0,
                0.0,
                0.0
            ],
            "scale" : [
                -4.022385120391846,
                -0.08363348990678787,
                -4.022385120391846
            ],
            "translation" : [
                0.0,
                0.3519318699836731,
                -0.0
            ]
        },
        {
            "name" : "Rim Light",
            "rotation" : [
                0.16907575726509094,
                0.7558802962303162,
                -0.27217137813568115,
                0.570947527885437
            ],
            "scale" : [
                1.0,
                1.0,
                0.9999999403953552
            ],
            "translation" : [
                -0.823336124420166,
                0.8371758460998535,
                -7.130124092102051
            ]
        },
        {
            "mesh" : 2,
            "name" : "Small Star",
            "rotation" : [
                0.0,
                1.0,
                -0.0,
                0.0
            ],
            "scale" : [
                3.239011764526367,
                0.06734559684991837,
                3.239011764526367
            ],
            "translation" : [
                0.0,
                0.6917281150817871,
                -0.0
            ]
        }
    ],
    "scene" : 0,
    "scenes" : [
        {
            "name" : "Scene",
            "nodes" : [
                6,
                4,
                3,
                2,
                1,
                5,
                0
            ]
        }
    ]
}
